<?xml version="1.0" standalone="no"?>
<!DOCTYPE svg PUBLIC "-//W3C//DTD SVG 20010904//EN"
 "http://www.w3.org/TR/2001/REC-SVG-20010904/DTD/svg10.dtd">
<svg version="1.0" xmlns="http://www.w3.org/2000/svg"
 width="512.000000pt" height="512.000000pt" viewBox="0 0 512.000000 512.000000"
 preserveAspectRatio="xMidYMid meet">

<g transform="translate(0.000000,512.000000) scale(0.100000,-0.100000)"
fill="#000000" stroke="none">
<path d="M1321 4624 c-169 -45 -301 -180 -346 -351 -23 -86 -23 -3340 0 -3426
45 -173 178 -307 350 -352 52 -13 211 -15 1226 -15 751 0 1185 4 1220 10 184
35 345 196 379 379 14 76 14 2510 0 2548 -14 37 -1166 1191 -1207 1209 -49 21
-1543 19 -1622 -2z m1399 -652 c0 -376 4 -411 56 -514 36 -71 123 -159 193
-197 108 -57 140 -61 523 -61 l348 0 -2 -1149 c-3 -1143 -3 -1150 -24 -1177
-11 -15 -33 -37 -48 -48 -27 -21 -31 -21 -1206 -21 -1175 0 -1179 0 -1206 21
-15 11 -37 33 -48 48 -21 27 -21 29 -24 1659 -1 898 0 1646 3 1664 7 40 49 91
90 109 24 11 163 13 688 14 l657 0 0 -348z m683 -450 c-239 -3 -261 -1 -304
35 -55 46 -59 69 -59 315 l0 223 285 -285 285 -285 -207 -3z"/>
<path d="M2495 2706 c-16 -8 -150 -135 -297 -282 -287 -290 -290 -293 -273
-381 9 -49 69 -109 118 -118 79 -15 103 -2 234 128 l122 120 3 -396 c3 -382 4
-397 24 -423 39 -53 71 -69 134 -69 63 0 95 16 134 69 20 26 21 41 24 423 l3
396 122 -120 c131 -130 155 -143 234 -128 49 9 109 69 118 118 17 88 14 91
-273 381 -147 147 -281 274 -299 282 -40 17 -89 17 -128 0z"/>
</g>
</svg>
